<?xml version="1.0" encoding="utf-8"?>
<!-- Generator: Adobe Illustrator 26.0.0, SVG Export Plug-In . SVG Version: 6.00 Build 0)  -->
<svg version="1.1" id="Layer_1" xmlns="http://www.w3.org/2000/svg" xmlns:xlink="http://www.w3.org/1999/xlink" x="0px" y="0px"
	 viewBox="0 0 613 313" style="enable-background:new 0 0 613 313;" xml:space="preserve">
<style type="text/css">
	.st0{fill-rule:evenodd;clip-rule:evenodd;fill:#D9920F;}
	.st1{fill-rule:evenodd;clip-rule:evenodd;fill:#FFFFFF;}
</style>
<g id="XMLID_214_">
	<path id="XMLID_235_" class="st0" d="M161.5,23.4c34.3,1.5,65.3,16.1,88.1,38.9c13.4,13.4,23.9,29.5,30.6,47.6h-8.7
		c-6.3-15.8-15.8-30-27.7-41.8c-21.3-21.3-50.2-34.9-82.4-36.5V23.4z"/>
	<path id="XMLID_223_" class="st1" d="M155,142.1l12.3,23h-27.4l13.7-25.5L155,142.1L155,142.1z M48.9,90.2
		c5.1-8.1,11-15.6,17.8-22.3c21-21,49.5-34.5,81.1-36.3v14.9L93.1,61.2v14.9C90.8,76.8,89,79,89,81.6c0,3.2,2.6,5.8,5.8,5.8
		c3.2,0,5.8-2.6,5.8-5.8c0-2.6-1.7-4.8-4.1-5.5V63.6L151,49V4.7h-3.2v18.8C113.9,25.3,83.4,39.7,61,62.2
		C38.2,84.9,23.6,115.9,22,150.2l-0.2,4.2H88v-8.1H30.3c0.4-4.5,0.9-8.9,1.8-13.2h69.7c0.7,2.4,2.9,4.1,5.5,4.1
		c3.2,0,5.8-2.6,5.8-5.8c0-3.2-2.6-5.8-5.8-5.8c-2.6,0-4.8,1.7-5.5,4.1H32.8c2.8-13,7.6-25.3,14.2-36.5h25.6l12.6,17h29.4
		c0.7,2.4,2.9,4.1,5.5,4.1c3.2,0,5.8-2.6,5.8-5.8c0-3.2-2.6-5.8-5.8-5.8c-2.6,0-4.8,1.7-5.5,4.1H86.7l-6.1-8.2H108l12.6-17h27.8
		c0.7,2.4,2.9,4.1,5.5,4.1c3.2,0,5.8-2.6,5.8-5.8c0-3.2-2.6-5.8-5.8-5.8c-2.6,0-4.8,1.7-5.5,4.1H119l-12.6,17H78.2l-4.1-5.5H48.9
		L48.9,90.2z M289.6,100c-17.1-40.1-51.9-70.9-94.6-82.6c45.6,9.5,83.3,40.8,101.4,82.6H289.6L289.6,100z M163.9,281.2v-16.3
		l54.6-14.6v-14.9c2.4-0.7,4.1-2.9,4.1-5.5c0-3.2-2.6-5.8-5.8-5.8c-3.2,0-5.8,2.6-5.8,5.8c0,2.6,1.7,4.8,4.1,5.5v12.4l-54.6,14.6
		v45.9h3.2v-19c33.4-2.1,63.4-16.5,85.7-38.7c11.3-11.3,20.6-24.7,27.3-39.5h50.3l15,15l14.2-16.4h20.9l22.9,19.2l24.2-19.2h37.2
		l14.7,17.2l18.7-20.3l13.3,10.9h41.5l52.7-61.8h-63.9v8.1h46.4L546,209.3h-34.1L494.1,195l-17.7,18.6l-10.9-12h-42.8l-22.4,17.3
		l-19.3-17.3h-28.5l-11,12.7L330.5,203l-59,0c-2.1,5.2-4.5,10.2-7.2,15h-25.1l-12.6-17h-29.4c-0.7-2.4-2.9-4.1-5.5-4.1
		c-3.2,0-5.8,2.6-5.8,5.8c0,3.2,2.6,5.8,5.8,5.8c2.6,0,4.8-1.7,5.5-4.1h27.8l6.1,8.2h-27.4l-12.6,17h-27.8c-0.7-2.4-2.9-4.1-5.5-4.1
		c-3.2,0-5.8,2.6-5.8,5.8s2.6,5.8,5.8,5.8c2.6,0,4.8-1.7,5.5-4.1h29.4l12.6-17h28.2l4.1,5.5h24.8c-5.2,8.6-11.5,16.5-18.5,23.6
		C223.1,265.6,195,279.1,163.9,281.2L163.9,281.2z M294.6,216.9c-18.7,39.9-55.5,69.6-99.7,78.8c41.3-11.3,75.3-40.5,93-78.8H294.6
		L294.6,216.9z M461,141.9c-0.2,0.2-0.4,0.3-0.6,0.5c-0.2,0.2-0.4,0.4-0.5,0.6c-0.3,0.4-0.5,0.9-0.7,1.4c-0.2,0.5-0.2,1-0.2,1.6
		c0,0.5,0.1,1.1,0.2,1.6c0.2,0.5,0.4,1,0.7,1.4c0.1,0.2,0.3,0.4,0.5,0.6c0.2,0.2,0.4,0.4,0.6,0.5c0.3,0.2,0.6,0.4,1,0.5l0,0
		c0.4,0.1,0.7,0.3,1.1,0.4c0.4,0.1,0.8,0.2,1.2,0.2c0.4,0,0.9,0.1,1.4,0.1h28.8c1.5,0,2.9,0.1,4.3,0.2c1.3,0.2,2.5,0.4,3.6,0.7
		c1.1,0.3,2.1,0.7,2.9,1.1c0.9,0.4,1.6,1,2.3,1.6c0.7,0.6,1.3,1.2,1.7,2c0.5,0.7,0.9,1.5,1.3,2.4c0.3,0.9,0.6,1.9,0.8,2.9
		c0.2,1.1,0.3,2.2,0.3,3.5v4c0,1.2-0.1,2.4-0.3,3.5c-0.2,1-0.4,2-0.8,2.9c-0.3,0.9-0.8,1.7-1.3,2.4c-0.5,0.7-1.1,1.4-1.7,2
		c-0.7,0.6-1.4,1.1-2.3,1.6c-0.9,0.5-1.8,0.8-2.9,1.1c-1.1,0.3-2.3,0.5-3.6,0.7c-1.3,0.2-2.7,0.2-4.3,0.2h-45.9v-11h44
		c0.5,0,0.9,0,1.4-0.1c0.4,0,0.9-0.1,1.2-0.2c0.4-0.1,0.8-0.2,1.1-0.4c0.4-0.1,0.7-0.3,1-0.5v0c0.2-0.2,0.4-0.3,0.6-0.5
		c0.2-0.2,0.4-0.4,0.5-0.6c0.3-0.5,0.6-1,0.7-1.5c0.2-0.5,0.2-1.1,0.2-1.7c0-0.6-0.1-1.1-0.2-1.7c-0.2-0.5-0.4-1-0.7-1.5
		c-0.1-0.2-0.3-0.4-0.5-0.6c-0.2-0.2-0.4-0.3-0.6-0.5c-0.3-0.2-0.6-0.4-1-0.5v0c-0.3-0.1-0.7-0.3-1.1-0.4c-0.4-0.1-0.8-0.2-1.2-0.2
		c-0.4,0-0.9-0.1-1.4-0.1h-28.8c-1.5,0-2.9-0.1-4.3-0.2c-1.3-0.2-2.5-0.4-3.6-0.7c-1.1-0.3-2.1-0.7-2.9-1.1c-0.9-0.4-1.6-1-2.3-1.6
		c-0.7-0.6-1.3-1.2-1.7-2c-0.5-0.7-0.9-1.5-1.3-2.4c-0.3-0.9-0.6-1.9-0.8-2.9c-0.2-1.1-0.3-2.2-0.3-3.5v-3.8c0-1.2,0.1-2.4,0.3-3.5
		c0.2-1,0.4-2,0.8-2.9c0.3-0.9,0.8-1.7,1.3-2.4c0.5-0.7,1.1-1.4,1.7-2c0.7-0.6,1.4-1.1,2.3-1.6c0.9-0.5,1.8-0.8,2.9-1.1
		c1.1-0.3,2.3-0.5,3.6-0.7c1.3-0.2,2.7-0.2,4.3-0.2h45.9v11h-44c-0.5,0-0.9,0-1.4,0.1c-0.4,0-0.8,0.1-1.2,0.2
		c-0.4,0.1-0.8,0.2-1.1,0.4C461.7,141.5,461.3,141.7,461,141.9L461,141.9z M362.6,161.5v-17.3c0-1.2,0.1-2.4,0.3-3.5
		c0.2-1,0.4-2,0.8-2.9c0.3-0.9,0.8-1.7,1.3-2.4c0.5-0.7,1.1-1.4,1.7-2c0.7-0.6,1.4-1.1,2.3-1.6c0.9-0.5,1.8-0.8,2.9-1.1
		c1.1-0.3,2.3-0.5,3.6-0.7c1.3-0.2,2.7-0.2,4.3-0.2h47.9v11h-45.9c-0.5,0-0.9,0-1.4,0.1c-0.4,0-0.8,0.1-1.2,0.2
		c-0.4,0.1-0.8,0.2-1.1,0.4c-0.4,0.1-0.7,0.3-1,0.5c-0.6,0.4-1.1,0.9-1.4,1.5c-0.3,0.6-0.5,1.2-0.5,1.9c-0.2,3.8-0.3,7.6-0.3,11.5
		c0,3.8,0.1,7.7,0.3,11.4c0,0.4,0,0.7,0.1,1.1c0.1,0.4,0.2,0.7,0.3,1c0.2,0.3,0.3,0.6,0.6,0.9l0,0c0.2,0.3,0.5,0.5,0.8,0.8
		c0.6,0.4,1.3,0.8,2.1,1c0.8,0.2,1.7,0.3,2.7,0.3h45.9v10.8h-47.9c-1.5,0-2.9-0.1-4.3-0.2c-1.3-0.2-2.5-0.4-3.6-0.7
		c-1.1-0.3-2.1-0.7-2.9-1.1c-0.9-0.4-1.6-1-2.3-1.6c-0.7-0.6-1.3-1.2-1.8-2c-0.5-0.7-0.9-1.5-1.3-2.4c-0.3-0.9-0.6-1.9-0.8-2.9
		c-0.2-1-0.3-2.2-0.3-3.4V161.5L362.6,161.5z M303.5,155.9l29-26.2h19L320.4,156l35.1,28.2h-21L303.5,155.9L303.5,155.9z
		 M285.6,129.7h14.8v54.4h-14.8V129.7L285.6,129.7z M204.7,161.5v-17.3c0-1.2,0.1-2.4,0.3-3.5c0.2-1,0.4-2,0.8-2.9
		c0.3-0.9,0.8-1.7,1.3-2.4c0.5-0.7,1.1-1.4,1.7-2c0.7-0.6,1.4-1.1,2.3-1.6c0.9-0.5,1.8-0.8,2.9-1.1c1.1-0.3,2.3-0.5,3.6-0.7
		c1.3-0.2,2.7-0.2,4.3-0.2h47.9v11h-45.9c-0.5,0-0.9,0-1.4,0.1c-0.4,0-0.8,0.1-1.2,0.2c-0.4,0.1-0.8,0.2-1.1,0.4
		c-0.4,0.2-0.7,0.3-1,0.5c-0.6,0.4-1.1,0.9-1.4,1.5c-0.3,0.6-0.5,1.2-0.5,1.9c-0.2,3.8-0.3,7.6-0.3,11.5c0,3.8,0.1,7.7,0.3,11.4
		c0,0.4,0,0.7,0.1,1.1c0.1,0.4,0.2,0.7,0.3,1c0.2,0.3,0.3,0.6,0.6,0.9l0,0c0.2,0.3,0.5,0.5,0.8,0.8c0.6,0.4,1.3,0.8,2.1,1
		c0.8,0.2,1.7,0.3,2.7,0.3h45.9v10.8h-47.9c-1.5,0-2.9-0.1-4.3-0.2c-1.3-0.2-2.5-0.4-3.6-0.7c-1.1-0.3-2.1-0.7-2.9-1.1
		c-0.9-0.4-1.6-1-2.3-1.6c-0.7-0.6-1.3-1.2-1.8-2c-0.5-0.7-0.9-1.5-1.3-2.4c-0.3-0.9-0.6-1.9-0.8-2.9c-0.2-1-0.3-2.2-0.3-3.4V161.5
		L204.7,161.5z M172.7,175.2l4.8,9h16.4l-29.6-54.4h-21.2l-29.8,54.4h16.4l5.3-9.8h37.2L172.7,175.2L172.7,175.2z"/>
	<path id="XMLID_215_" class="st0" d="M11.9,156.5c0-66.5,45-122.5,106.2-139.2C53.5,30.8,5,88,5,156.5
		c0,68.6,48.6,125.8,113.1,139.2C56.9,279,11.9,223,11.9,156.5L11.9,156.5z M269.8,105.8h298.8l39.4,41.5h-69.3v-8.1h50.6
		l-24.1-25.4H273L269.8,105.8L269.8,105.8z M159.3,114.5c-3.2,0-5.8-2.6-5.8-5.8c0-3.2,2.6-5.8,5.8-5.8c2.6,0,4.8,1.7,5.5,4.1h57.7
		l12.6-17h30.6v3.2h-29l-12.6,17h-59.3C164.1,112.7,161.9,114.5,159.3,114.5L159.3,114.5z M225.7,48.8h-39.9
		c-0.7,2.4-2.9,4.1-5.5,4.1c-3.2,0-5.8-2.6-5.8-5.8c0-3.2,2.6-5.8,5.8-5.8c2.6,0,4.8,1.7,5.5,4.1h39.9V48.8L225.7,48.8z M259.8,81.9
		h-39.9c-0.7,2.4-2.9,4.1-5.5,4.1c-3.2,0-5.8-2.6-5.8-5.8c0-3.2,2.6-5.8,5.8-5.8c2.6,0,4.8,1.7,5.5,4.1h39.9V81.9L259.8,81.9z
		 M164.7,4.7h-3.2v58.4h24.9v20.4c-2.4,0.7-4.1,2.9-4.1,5.5c0,3.2,2.6,5.8,5.8,5.8c3.2,0,5.8-2.6,5.8-5.8c0-2.6-1.7-4.8-4.1-5.5
		V59.9h-24.9V4.7L164.7,4.7z M122,227.9c-2.4-0.7-4.1-2.9-4.1-5.5c0-3.2,2.6-5.8,5.8-5.8c3.2,0,5.8,2.6,5.8,5.8
		c0,2.6-1.7,4.8-4.1,5.5v20.4h24.9v60h-3.2v-19c-32.9-2-62.6-15.8-84.8-37.5c-22.7-22.1-37.5-52.3-39.9-86l-0.3-4.3l65.3,0v8
		l-56.6,0c0.5,4.6,1.2,9,2.1,13.4h59.6c0.7-2.4,2.9-4.1,5.5-4.1c3.2,0,5.8,2.6,5.8,5.8c0,3.2-2.6,5.8-5.8,5.8
		c-2.6,0-4.8-1.7-5.5-4.1H33.5c2.7,11.3,7,22,12.6,31.8h28.8l12.6-17h59.3c0.7-2.4,2.9-4.1,5.5-4.1c3.2,0,5.8,2.6,5.8,5.8
		c0,3.2-2.6,5.8-5.8,5.8c-2.6,0-4.8-1.7-5.5-4.1H89.1l-12.6,17H48c1.7,2.8,3.5,5.6,5.4,8.2h38.3c0.7-2.4,2.9-4.1,5.5-4.1
		c3.2,0,5.8,2.6,5.8,5.8s-2.6,5.8-5.8,5.8c-2.6,0-4.8-1.7-5.5-4.1H55.8c3.6,4.7,7.6,9.2,11.9,13.4c6.4,6.2,13.5,11.8,21.1,16.5h37
		c0.7-2.4,2.9-4.1,5.5-4.1c3.2,0,5.8,2.6,5.8,5.8c0,3.2-2.6,5.8-5.8,5.8c-2.6,0-4.8-1.7-5.5-4.1H94.3c15.8,8.8,33.6,14.2,52.6,15.4
		v-29.7H122V227.9z"/>
</g>
</svg>
